<?xml version="1.0" standalone="no"?>
<!DOCTYPE svg PUBLIC "-//W3C//DTD SVG 20010904//EN"
 "http://www.w3.org/TR/2001/REC-SVG-20010904/DTD/svg10.dtd">
<svg version="1.0" xmlns="http://www.w3.org/2000/svg"
 width="299.000000pt" height="172.000000pt" viewBox="0 0 299.000000 172.000000"
 preserveAspectRatio="xMidYMid meet">
<metadata>
Created by potrace 1.16, written by Peter Selinger 2001-2019
</metadata>
<g transform="translate(0.000000,172.000000) scale(0.100000,-0.100000)"
fill="#000000" stroke="none">
<path d="M340 1710 c0 -5 15 -30 34 -55 19 -24 37 -54 41 -65 4 -14 -59 -171
-204 -508 -116 -268 -211 -495 -211 -505 0 -12 6 -17 17 -15 12 2 45 67 103
203 l86 200 240 3 240 2 89 -205 89 -205 79 0 c77 0 79 1 74 23 -4 18 -187
445 -449 1045 l-40 92 -94 0 c-55 0 -94 -4 -94 -10z m224 -459 c54 -122 95
-225 93 -227 -2 -3 -99 -3 -214 -2 l-210 3 106 247 c94 218 107 244 117 225 7
-12 55 -123 108 -246z"/>
<path d="M1020 1714 c0 -3 13 -23 29 -43 15 -20 38 -55 50 -78 21 -41 21 -52
21 -533 0 -482 0 -490 20 -490 19 0 20 8 22 438 l3 438 191 -440 c107 -247
196 -441 203 -441 8 0 89 203 200 499 l186 498 3 -491 2 -491 65 0 65 0 0 570
0 571 -62 -3 -61 -3 -177 -471 -176 -472 -205 474 -204 474 -87 0 c-49 0 -88
-3 -88 -6z"/>
<path d="M2459 1707 c-130 -48 -199 -148 -199 -287 0 -89 22 -145 78 -203 46
-49 118 -85 265 -136 135 -47 172 -64 210 -100 105 -97 76 -276 -55 -340 -124
-59 -329 -17 -446 93 -27 25 -52 46 -56 46 -3 0 -6 -20 -6 -45 0 -44 0 -44 63
-79 168 -93 366 -112 497 -46 49 25 105 84 132 139 19 38 23 62 23 141 0 86
-3 100 -27 141 -50 85 -113 123 -337 205 -200 72 -251 120 -251 234 0 111 69
190 184 211 109 20 223 -16 318 -100 59 -52 70 -52 66 0 -3 42 -3 42 -91 88
l-89 46 -121 2 c-83 2 -134 -1 -158 -10z"/>
<path d="M630 280 c0 -28 -2 -30 -39 -30 -30 0 -44 -6 -55 -22 -20 -29 -20
-67 0 -96 13 -19 24 -22 75 -22 l59 0 0 100 c0 93 -1 100 -20 100 -16 0 -20
-7 -20 -30z"/>
<path d="M371 210 c-22 -50 -41 -93 -41 -95 0 -15 40 -2 45 15 5 16 15 20 50
20 34 0 47 -5 55 -20 11 -20 40 -28 40 -11 0 23 -82 181 -93 181 -8 0 -33 -41
-56 -90z"/>
<path d="M1170 205 c0 -88 1 -95 20 -95 17 0 20 7 20 53 l1 52 25 -42 c14 -24
31 -43 38 -43 6 0 22 21 36 47 l25 48 3 -58 c2 -42 7 -57 17 -57 12 0 15 19
15 95 0 116 -12 123 -63 33 l-35 -62 -31 55 c-17 30 -31 57 -31 62 0 4 -9 7
-20 7 -19 0 -20 -7 -20 -95z"/>
<path d="M1639 288 c-24 -19 -31 -51 -17 -71 7 -9 31 -23 53 -30 51 -18 54
-42 5 -41 -19 0 -41 2 -49 5 -8 2 -16 -3 -18 -13 -3 -11 7 -20 32 -28 46 -15
80 -6 101 25 15 22 15 27 1 48 -8 13 -33 29 -56 36 -43 12 -54 35 -22 46 10 3
30 1 45 -5 21 -8 28 -7 33 6 8 21 0 26 -49 31 -27 3 -49 0 -59 -9z"/>
<path d="M707 232 c-23 -25 -22 -85 1 -105 26 -24 85 -22 107 3 43 48 10 120
-55 120 -23 0 -43 -7 -53 -18z"/>
<path d="M1930 180 c0 -56 3 -70 15 -70 11 0 15 11 15 43 0 85 46 92 79 12 31
-74 51 -73 85 6 30 69 31 79 12 79 -7 0 -23 -21 -34 -47 l-21 -48 -21 48 -21
47 -54 0 -55 0 0 -70z"/>
</g>
</svg>
