<svg width="23" height="23" viewBox="0 0 23 23" fill="none" xmlns="http://www.w3.org/2000/svg">
<path d="M20 0H2.5C1.125 0 0 1.125 0 2.5V11.25C0 12.625 1.125 13.75 2.5 13.75H20C21.375 13.75 22.5 12.625 22.5 11.25V2.5C22.5 1.125 21.375 0 20 0ZM20 7.5H15C15 9.525 13.275 11.25 11.25 11.25C9.225 11.25 7.5 9.525 7.5 7.5H2.5V2.5H20V7.5ZM15 16.25H22.5V20C22.5 21.375 21.375 22.5 20 22.5H2.5C1.125 22.5 0 21.375 0 20V16.25H7.5C7.5 18.325 9.175 20 11.25 20C13.325 20 15 18.325 15 16.25Z" fill="#551347"/>
</svg>
